<?xml version="1.0" encoding="UTF-8" standalone="no"?>
<svg
   xmlns:dc="http://purl.org/dc/elements/1.1/"
   xmlns:cc="http://creativecommons.org/ns#"
   xmlns:rdf="http://www.w3.org/1999/02/22-rdf-syntax-ns#"
   xmlns:svg="http://www.w3.org/2000/svg"
   xmlns="http://www.w3.org/2000/svg"
   id="svg4493"
   version="1.1"
   viewBox="0 0 210 297"
   height="297mm"
   width="210mm">
  <defs
     id="defs4487" />
  <metadata
     id="metadata4490">
    <rdf:RDF>
      <cc:Work
         rdf:about="">
        <dc:format>image/svg+xml</dc:format>
        <dc:type
           rdf:resource="http://purl.org/dc/dcmitype/StillImage" />
        <dc:title></dc:title>
      </cc:Work>
    </rdf:RDF>
  </metadata>
  <g
     id="layer1">
    <g
       id="text5040"
       style="font-style:normal;font-weight:normal;font-size:11.33415985px;line-height:1.25;font-family:sans-serif;letter-spacing:0px;word-spacing:0px;fill:#000000;fill-opacity:1;stroke:none;stroke-width:0.28335398"
       transform="matrix(0.77859614,0,0,1.2843629,-98.355186,-125.08214)"
       aria-label="FREECAD">
      <path
         id="path5042"
         style="stroke-width:0.28335398"
         d="m 103.28036,94.037227 h 4.7484 v 0.940823 h -3.63048 v 2.435074 h 3.27628 v 0.940824 h -3.27628 v 3.945922 h -1.11792 z" />
      <path
         id="path5044"
         style="stroke-width:0.28335398"
         d="m 113.72904,98.425893 q 0.35973,0.121754 0.69732,0.52022 0.34312,0.398467 0.68625,1.095787 l 1.13452,2.25797 h -1.20094 l -1.05704,-2.11962 q -0.40953,-0.830136 -0.79693,-1.101315 -0.38187,-0.271178 -1.04598,-0.271178 h -1.21753 v 3.492113 h -1.11792 v -8.262643 h 2.52362 q 1.41677,0 2.11408,0.592165 0.69732,0.592166 0.69732,1.787565 0,0.780331 -0.36526,1.295017 -0.35973,0.514686 -1.05151,0.713919 z m -2.80033,-3.46998 v 2.933157 h 1.4057 q 0.808,0 1.21753,-0.370795 0.41507,-0.37633 0.41507,-1.101318 0,-0.724987 -0.41507,-1.090248 -0.40953,-0.370796 -1.21753,-0.370796 z" />
      <path
         id="path5046"
         style="stroke-width:0.28335398"
         d="m 117.69157,94.037227 h 5.22434 v 0.940823 h -4.10642 v 2.446142 h 3.93486 v 0.940824 h -3.93486 v 2.994034 h 4.20604 v 0.94082 h -5.32396 z" />
      <path
         id="path5048"
         style="stroke-width:0.28335398"
         d="m 124.86397,94.037227 h 5.22434 v 0.940823 h -4.10642 v 2.446142 h 3.93485 v 0.940824 h -3.93485 v 2.994034 h 4.20603 v 0.94082 h -5.32395 z" />
      <path
         id="path5050"
         style="stroke-width:0.28335398"
         d="m 138.22367,94.673666 v 1.178797 q -0.5645,-0.525754 -1.20647,-0.785865 -0.63644,-0.26011 -1.35589,-0.26011 -1.41677,0 -2.16943,0.868879 -0.75266,0.863344 -0.75266,2.501484 0,1.632606 0.75266,2.501489 0.75266,0.86334 2.16943,0.86334 0.71945,0 1.35589,-0.26011 0.64197,-0.26011 1.20647,-0.78586 v 1.16772 q -0.58663,0.39847 -1.24521,0.5977 -0.65304,0.19924 -1.38357,0.19924 -1.87611,0 -2.95529,-1.14559 -1.07918,-1.15113 -1.07918,-3.137929 0,-1.992332 1.07918,-3.137924 1.07918,-1.151125 2.95529,-1.151125 0.74159,0 1.39464,0.199233 0.65857,0.193699 1.23414,0.586631 z" />
      <path
         id="path5052"
         style="stroke-width:0.28335398"
         d="m 142.72302,95.138544 -1.51639,4.111953 h 3.03831 z m -0.63091,-1.101317 h 1.26735 l 3.14899,8.262643 h -1.16219 l -0.75266,-2.11962 h -3.72456 l -0.75266,2.11962 h -1.17879 z" />
      <path
         id="path5054"
         style="stroke-width:0.28335398"
         d="m 148.8273,94.955913 v 6.425277 h 1.35036 q 1.71009,0 2.50149,-0.7748 0.79693,-0.774796 0.79693,-2.446141 0,-1.660278 -0.79693,-2.42954 -0.7914,-0.774796 -2.50149,-0.774796 z m -1.11792,-0.918686 h 2.29672 q 2.40187,0 3.52532,1.0017 1.12346,0.996167 1.12346,3.121322 0,2.136221 -1.12899,3.137921 -1.12899,1.0017 -3.51979,1.0017 h -2.29672 z" />
    </g>
  </g>
</svg>
